HIERARCHY
ROOT Hips
{
	OFFSET 0.000000 0.000000 0.000000
	CHANNELS 6 Xposition Yposition Zposition Xrotation Yrotation Zrotation
	JOINT LeftUpLeg_virtual
	{
		OFFSET 0.000000 0.000000 0.000000
		CHANNELS 3 Xrotation Yrotation Zrotation
		JOINT LeftUpLeg
		{
			OFFSET 15.427100 -6.655098 0.678600
			CHANNELS 3 Xrotation Yrotation Zrotation
			JOINT LeftLeg
			{
				OFFSET 4.081073 -39.591068 13.024000
				CHANNELS 3 Xrotation Yrotation Zrotation
				JOINT LeftFoot
				{
					OFFSET -4.081074 -37.707932 -15.979700
					CHANNELS 3 Xrotation Yrotation Zrotation
					JOINT LeftToeBase
					{
						OFFSET 5.346399 -15.068900 20.645000
						CHANNELS 3 Xrotation Yrotation Zrotation
						JOINT LeftToe_End
						{
							OFFSET 2.754700 0.931300 11.300900
							CHANNELS 3 Xrotation Yrotation Zrotation
							End Site
							{
								OFFSET 0 0 0
							}
						}
					}
				}
			}
		}
	}
	JOINT RightUpLeg_virtual
	{
		OFFSET 0.000000 0.000000 0.000000
		CHANNELS 3 Xrotation Yrotation Zrotation
		JOINT RightUpLeg
		{
			OFFSET -15.569500 -6.655098 0.678600
			CHANNELS 3 Xrotation Yrotation Zrotation
			JOINT RightLeg
			{
				OFFSET -4.081825 -39.591045 13.023800
				CHANNELS 3 Xrotation Yrotation Zrotation
				JOINT RightFoot
				{
					OFFSET 4.081824 -37.707954 -15.979600
					CHANNELS 3 Xrotation Yrotation Zrotation
					JOINT RightToeBase
					{
						OFFSET -5.346400 -15.068900 20.645000
						CHANNELS 3 Xrotation Yrotation Zrotation
						JOINT RightToe_End
						{
							OFFSET -2.754700 0.931300 11.300900
							CHANNELS 3 Xrotation Yrotation Zrotation
							End Site
							{
								OFFSET 0 0 0
							}
						}
					}
				}
			}
		}
	}
	JOINT Spine_virtual
	{
		OFFSET 0.000000 0.000000 0.000000
		CHANNELS 3 Xrotation Yrotation Zrotation
		JOINT Spine
		{
			OFFSET -0.279200 12.230698 -2.892100
			CHANNELS 3 Xrotation Yrotation Zrotation
			JOINT Spine1
			{
				OFFSET -0.232667 10.192268 -1.242267
				CHANNELS 3 Xrotation Yrotation Zrotation
				JOINT Spine1_split
				{
					OFFSET -0.232667 10.192268 -1.242267
					CHANNELS 3 Xrotation Yrotation Zrotation
					JOINT Spine2
					{
						OFFSET -0.232667 10.192268 -1.242267
						CHANNELS 3 Xrotation Yrotation Zrotation
						JOINT Neck_virtual
						{
							OFFSET 0.000000 0.000000 0.000000
							CHANNELS 3 Xrotation Yrotation Zrotation
							JOINT Neck
							{
								OFFSET -0.418800 17.814194 8.416900
								CHANNELS 3 Xrotation Yrotation Zrotation
								JOINT Head
								{
									OFFSET 0.000000 7.031097 3.806800
									CHANNELS 3 Xrotation Yrotation Zrotation
									JOINT HeadTop_End
									{
										OFFSET 0.000000 24.646606 12.978600
										CHANNELS 3 Xrotation Yrotation Zrotation
										End Site
										{
											OFFSET 0 0 0
										}
									}
								}
							}
						}
						JOINT LeftShoulder_virtual
						{
							OFFSET 0.000000 0.000000 0.000000
							CHANNELS 3 Xrotation Yrotation Zrotation
							JOINT LeftShoulder
							{
								OFFSET 8.476499 7.247704 -3.868750
								CHANNELS 3 Xrotation Yrotation Zrotation
								JOINT LeftShoulder_split
								{
									OFFSET 8.476499 7.247704 -3.868750
									CHANNELS 3 Xrotation Yrotation Zrotation
									JOINT LeftArm
									{
										OFFSET 9.308998 -2.777710 0.208600
										CHANNELS 3 Xrotation Yrotation Zrotation
										JOINT LeftForeArm
										{
											OFFSET 29.972298 0.000000 0.000000
											CHANNELS 3 Xrotation Yrotation Zrotation
											JOINT LeftHand
											{
												OFFSET 26.026505 0.000000 0.000000
												CHANNELS 3 Xrotation Yrotation Zrotation
												End Site
												{
													OFFSET 0 0 0
												}
											}
										}
									}
								}
							}
						}
						JOINT RightShoulder_virtual
						{
							OFFSET 0.000000 0.000000 0.000000
							CHANNELS 3 Xrotation Yrotation Zrotation
							JOINT RightShoulder
							{
								OFFSET -7.570500 7.247704 -3.868750
								CHANNELS 3 Xrotation Yrotation Zrotation
								JOINT RightShoulder_split
								{
									OFFSET -7.570500 7.247704 -3.868750
									CHANNELS 3 Xrotation Yrotation Zrotation
									JOINT RightArm
									{
										OFFSET -9.308998 -2.777710 0.208500
										CHANNELS 3 Xrotation Yrotation Zrotation
										JOINT RightForeArm
										{
											OFFSET -29.972300 0.000000 0.000000
											CHANNELS 3 Xrotation Yrotation Zrotation
											JOINT RightHand
											{
												OFFSET -26.026505 0.000000 0.000000
												CHANNELS 3 Xrotation Yrotation Zrotation
												End Site
												{
													OFFSET 0 0 0
												}
											}
										}
									}
								}
							}
						}
					}
				}
			}
		}
	}
}
MOTION
Frames: 8
Frame Time: 0.03333333
-6.606168 91.380913 -9.883184 0.000000 0.000000 0.000000 -9.770061 -3.457807 4.221950 -7.115753 7.054844 -2.248614 22.524021 0.850674 -1.813580 -7.939163 4.834182 2.660847 -2.316450 -0.056296 0.547443 0.000000 0.000000 0.000000 -9.045590 -4.000435 4.047852 -11.045825 -13.025921 -16.461270 32.300904 1.515203 1.035407 -12.024568 -17.076759 2.937303 -1.378598 0.495565 -0.166073 0.000000 0.000000 0.000000 -9.767036 -2.067552 4.233691 7.548833 0.709324 -2.990693 13.792381 2.530994 -1.423271 0.442253 -1.780526 0.694677 0.000000 0.000000 0.000000 14.223221 2.647065 -2.243795 30.467732 -0.739907 -4.629652 1.735600 -1.670037 -5.887066 0.000000 0.000000 0.000000 14.669573 3.012487 -2.887818 -4.171768 -23.136593 -26.032689 -3.172185 -1.215311 -4.865352 5.367572 -43.797949 -24.655461 8.826333 -20.156406 -2.087140 0.000000 0.000000 0.000000 14.273013 3.034460 -2.639728 -0.358372 23.786255 24.100249 -0.160773 0.499319 1.064057 -6.851820 21.461610 40.087449 35.382559 41.682223 -16.826603 0.000000 0.000000 0.000000 
-6.097528 91.668388 -9.702196 0.000000 0.000000 0.000000 -10.509226 -4.005234 4.745197 -4.216436 7.921730 -3.045834 19.628343 0.730785 -1.972579 -7.027159 4.543409 2.441280 -1.365491 0.025088 0.361369 0.000000 0.000000 0.000000 -9.921355 -3.845490 4.487130 -9.443582 -13.715751 -17.925314 31.043787 1.626784 1.055642 -12.137747 -15.956403 3.310516 -1.072518 0.388560 0.012547 0.000000 0.000000 0.000000 -11.077761 -1.807219 4.608593 7.704453 0.666981 -3.774795 12.256760 2.570460 -1.726415 0.865919 -1.727400 0.533744 0.000000 0.000000 0.000000 12.623364 2.725209 -2.433687 28.730118 -0.081247 -4.558335 1.370661 -0.248658 -6.069349 0.000000 0.000000 0.000000 13.225338 3.085119 -2.975210 -2.679892 -22.257915 -22.591573 -3.462486 -1.154125 -4.550260 5.005239 -40.952677 -27.996735 7.764420 -19.385422 -2.186248 0.000000 0.000000 0.000000 12.873284 3.079483 -2.785312 0.346684 22.174527 22.858203 0.201500 0.053751 1.506978 -2.369332 23.854466 40.853714 33.457091 43.862464 -15.662722 0.000000 0.000000 0.000000 
-5.734343 91.792992 -9.382666 0.000000 0.000000 0.000000 -10.673113 -4.418854 4.973161 -2.260508 8.498336 -3.549188 17.465699 0.702831 -2.065674 -6.408584 4.120827 2.462060 -0.724639 0.032292 0.236663 0.000000 0.000000 0.000000 -10.290866 -3.552860 4.698558 -8.376816 -14.020602 -18.998963 30.294122 1.786703 1.157587 -12.419189 -14.908343 3.894115 -1.304551 0.309237 0.048919 0.000000 0.000000 0.000000 -11.611450 -1.448671 4.746246 7.629081 0.592248 -4.453498 10.766500 2.573148 -2.011409 0.954918 -1.775115 0.249251 0.000000 0.000000 0.000000 11.150444 2.742961 -2.633384 26.948359 0.427923 -4.038678 0.651183 0.765237 -5.865872 0.000000 0.000000 0.000000 11.820014 3.097611 -3.054964 -1.034402 -21.363665 -18.531396 -3.924557 -1.016105 -4.248097 4.481542 -36.408576 -31.566112 8.411234 -20.130934 -1.280121 0.000000 0.000000 0.000000 11.451397 3.061575 -2.933311 1.193937 20.405740 20.615254 0.460565 -0.335415 1.976224 1.150196 24.931302 41.969552 32.510249 45.385060 -15.401148 0.000000 0.000000 0.000000 
-5.561521 91.790527 -9.077703 0.000000 0.000000 0.000000 -10.475870 -4.663333 4.910156 -1.333614 8.901458 -3.706482 16.216245 0.722517 -2.147373 -5.920296 3.615508 2.739313 -0.537372 -0.031393 0.248146 0.000000 0.000000 0.000000 -10.248787 -3.343491 4.728756 -7.914860 -13.931884 -19.809302 29.978066 2.010454 1.373439 -12.448100 -14.028479 4.676129 -1.994692 0.250219 -0.039814 0.000000 0.000000 0.000000 -11.569686 -1.245062 4.640931 7.265531 0.558078 -4.908253 9.385973 2.540817 -2.240968 1.160981 -1.941623 0.124366 0.000000 0.000000 0.000000 9.843257 2.705293 -2.802324 25.033571 0.786866 -3.260478 -0.526655 1.426118 -5.387900 0.000000 0.000000 0.000000 10.562514 3.036608 -3.149396 0.564703 -20.283987 -14.475218 -4.485741 -1.052415 -4.256210 4.289043 -30.639733 -35.081730 10.659269 -21.229287 0.298833 0.000000 0.000000 0.000000 10.115518 2.994286 -3.077288 2.060897 18.559591 17.720555 0.249533 -0.443994 2.546152 2.979345 24.333847 43.664798 32.750358 45.940361 -16.095068 0.000000 0.000000 0.000000 
-5.492680 91.721771 -8.861021 0.000000 0.000000 0.000000 -10.173650 -4.794713 4.672046 -1.141925 9.208325 -3.691950 15.671471 0.821956 -2.239816 -5.644250 3.261664 3.267906 -0.541764 -0.117506 0.311365 0.000000 0.000000 0.000000 -9.970907 -3.402044 4.643266 -7.897078 -13.654782 -20.397703 29.913237 2.173160 1.639962 -12.194826 -13.506091 5.312084 -2.627738 0.198932 -0.153686 0.000000 0.000000 0.000000 -11.169663 -1.374694 4.377695 6.713454 0.578514 -5.125382 8.142842 2.489906 -2.377453 1.207569 -1.855262 0.385878 0.000000 0.000000 0.000000 8.756881 2.625930 -2.900087 22.992394 1.005762 -2.477785 -1.981066 1.757970 -4.813400 0.000000 0.000000 0.000000 9.458876 2.929711 -3.243030 1.902908 -18.974247 -11.103151 -5.182127 -1.222531 -4.244639 3.919647 -24.252253 -38.641239 14.158418 -21.131229 2.061164 0.000000 0.000000 0.000000 8.931705 2.902095 -3.165959 2.843488 16.788791 14.751467 -0.229153 -0.276286 3.248223 3.012900 22.113185 46.006778 33.938418 45.390193 -17.322697 0.000000 0.000000 0.000000 
-5.410481 91.646042 -8.717363 0.000000 0.000000 0.000000 -9.869182 -4.768940 4.384789 -1.389502 9.443133 -3.681364 15.440893 0.998672 -2.318771 -5.635441 3.116448 3.904589 -0.403734 -0.171168 0.323635 0.000000 0.000000 0.000000 -9.612427 -3.676757 4.512607 -8.040007 -13.390391 -20.763647 29.829779 2.176600 1.967529 -12.014226 -13.388452 5.437111 -2.778113 0.160168 -0.213669 0.000000 0.000000 0.000000 -10.693374 -1.804898 4.125605 6.022439 0.619777 -5.145097 7.055132 2.421978 -2.410459 1.264530 -1.869652 0.612138 0.000000 0.000000 0.000000 7.823008 2.519757 -2.878784 20.882953 1.090053 -1.896655 -3.270962 1.886622 -4.346828 0.000000 0.000000 0.000000 8.506295 2.796327 -3.263138 2.897030 -17.541377 -8.572291 -5.732476 -1.565495 -4.273517 2.459129 -17.579044 -42.429501 17.966686 -19.460952 3.316034 0.000000 0.000000 0.000000 7.940306 2.793315 -3.149269 3.476777 15.259604 12.221082 -0.876235 -0.058949 4.165542 1.663797 18.563457 48.940457 35.610919 43.830632 -18.483733 0.000000 0.000000 0.000000 
-5.310211 91.631126 -8.634321 0.000000 0.000000 0.000000 -9.634706 -4.736007 4.169259 -1.523601 9.637096 -3.737431 15.170731 1.149083 -2.352526 -5.852673 3.057569 4.354209 -0.265206 -0.176189 0.292360 0.000000 0.000000 0.000000 -9.316819 -3.998187 4.438340 -8.055381 -13.312474 -20.929149 29.596979 2.014828 2.308149 -12.094799 -13.576154 4.992587 -2.467536 0.149073 -0.190378 0.000000 0.000000 0.000000 -10.314188 -2.417370 3.962254 5.369039 0.638970 -5.084795 6.136415 2.331246 -2.369608 1.516152 -1.790945 0.847215 0.000000 0.000000 0.000000 6.982948 2.405373 -2.737785 18.785804 1.078480 -1.606827 -4.054644 1.925352 -4.105768 0.000000 0.000000 0.000000 7.631066 2.655342 -3.184250 3.497467 -16.075757 -6.953379 -6.105236 -2.034454 -3.941408 -0.017239 -10.618775 -45.991871 21.500720 -16.911070 3.629426 0.000000 0.000000 0.000000 7.146419 2.674130 -3.025774 3.968961 14.083238 10.488049 -1.348757 0.415648 4.653416 -0.218785 14.348006 52.061150 37.346242 41.570048 -19.076483 0.000000 0.000000 0.000000 
-5.138038 91.657135 -8.489046 0.000000 0.000000 0.000000 -9.496935 -4.843638 4.083358 -1.291888 9.770680 -3.845471 14.836325 1.213300 -2.314862 -6.126539 2.977300 4.532620 -0.262019 -0.139940 0.207299 0.000000 0.000000 0.000000 -9.148237 -4.279956 4.430100 -7.862101 -13.433484 -20.954848 29.291451 1.775937 2.652057 -12.327141 -13.948605 4.304176 -2.101255 0.159557 -0.106187 0.000000 0.000000 0.000000 -10.107428 -3.016767 3.951317 4.852577 0.583644 -5.038729 5.379298 2.232090 -2.309789 1.467633 -1.348047 0.908736 0.000000 0.000000 0.000000 6.229338 2.295866 -2.519713 16.763851 0.968970 -1.594894 -4.076410 1.805032 -4.074574 0.000000 0.000000 0.000000 6.817793 2.531975 -3.018516 3.792316 -14.753682 -6.045290 -6.055071 -2.822596 -3.293901 -3.269053 -3.538747 -48.936116 24.405856 -14.367786 3.013265 0.000000 0.000000 0.000000 6.514027 2.551669 -2.826517 4.297081 13.250303 9.568762 -1.615083 0.907561 4.485823 -1.877745 9.925911 54.940157 38.758544 38.939646 -18.856327 0.000000 0.000000 0.000000 
